# xmcd CD database file
#
# Track frame offsets:
#	150
#	21360
#	37005
#	55173
#	73143
#	92815
#	114483
#	130248
#	147048
#	169088
#	187810
#	207263
#	244453
#	255990
#
# Disc length: 3708 seconds
#
# Revision: 2
# Processed by: cddbd v1.5.1PL0 Copyright (c) Steve Scherf et al.
# Submitted via: NeoAudio 9.9.9
#
DISCID=c80e7a0e
DTITLE=Flamin' Amy and Sweet Potata - Soul Kiss
DYEAR=1900
DGENRE=Blues
TTITLE0=Blood From A Stone
TTITLE1=Corner of the Blanket
TTITLE2=Mojo
TTITLE3=Soul Kiss
TTITLE4=Real Bad Live
TTITLE5=To the Rain
TTITLE6=Filamena
TTITLE7=Bump and Grind
TTITLE8=Things That Need Fixing
TTITLE9=Turning to Stone
TTITLE10=Another Bottle of Blues
TTITLE11=I'd Rather go Blind
TTITLE12=Last Minute Mama
TTITLE13=Love Me Tonight
EXTD=
EXTT0=
EXTT1=
EXTT2=
EXTT3=
EXTT4=
EXTT5=
EXTT6=
EXTT7=
EXTT8=
EXTT9=
EXTT10=
EXTT11=
EXTT12=
EXTT13=
PLAYORDER=
